<svg width="32" height="32" viewBox="0 0 32 32" fill="none" xmlns="http://www.w3.org/2000/svg">
<path d="M16 32C24.8366 32 32 24.8366 32 16C32 7.16344 24.8366 0 16 0C7.16344 0 0 7.16344 0 16C0 24.8366 7.16344 32 16 32Z" fill="#0D1E30"/>
<g filter="url(#filter0_d)">
<path d="M15.725 6.06001C16.204 5.81301 16.789 6.38401 16.535 6.85501C16.386 7.23901 15.825 7.34101 15.539 7.04801C15.236 6.76801 15.335 6.21201 15.725 6.05901V6.06001ZM10.57 6.60601C10.861 6.48801 11.23 6.75001 11.2 7.06301C11.23 7.40101 10.81 7.65101 10.513 7.49001C10.12 7.34001 10.165 6.71201 10.57 6.60601ZM21.128 7.49901C20.673 7.44501 20.601 6.74101 21.038 6.59901C21.378 6.43701 21.69 6.74201 21.74 7.05901C21.668 7.32901 21.438 7.57701 21.128 7.49901ZM11.743 8.76401C12.23 8.46101 12.924 8.91201 12.849 9.46901C12.824 10.03 12.066 10.356 11.638 9.97601C11.224 9.67801 11.287 8.99401 11.743 8.76401ZM19.173 9.08601C19.39 8.53601 20.27 8.51801 20.517 9.05401C20.762 9.47101 20.461 9.98801 20.026 10.13C19.449 10.236 18.902 9.62201 19.173 9.08601ZM15.104 10.099C15.099 9.62501 15.537 9.27301 15.994 9.24001C16.298 9.30001 16.628 9.42701 16.758 9.72801C17.001 10.144 16.785 10.715 16.348 10.906C16.148 11.016 15.91 10.975 15.692 10.962C15.359 10.802 15.078 10.485 15.104 10.099ZM7.438 10.789C7.883 10.519 8.483 11.009 8.314 11.485C8.222 11.896 7.66 12.063 7.339 11.801C6.996 11.555 7.05 10.964 7.439 10.788L7.438 10.789ZM23.9 10.787C24.277 10.499 24.9 10.83 24.854 11.298C24.88 11.725 24.341 12.048 23.967 11.828C23.555 11.645 23.512 11.021 23.9 10.788V10.787ZM17.26 11.638C17.882 11.418 18.622 11.681 18.976 12.228C19.444 12.895 19.196 13.911 18.469 14.294C17.717 14.747 16.618 14.364 16.339 13.536C16.024 12.796 16.484 11.87 17.259 11.638H17.26ZM13.607 11.711C14.297 11.391 15.226 11.659 15.559 12.353C15.951 13.029 15.648 13.97 14.947 14.319C14.245 14.712 13.254 14.414 12.915 13.689C12.534 12.987 12.872 12.034 13.607 11.711ZM9.95 12.94C10.003 12.503 10.422 12.218 10.845 12.188C11.0656 12.2113 11.2718 12.3088 11.4298 12.4644C11.5878 12.6201 11.6884 12.8248 11.715 13.045C11.685 13.495 11.332 13.933 10.848 13.931C10.315 13.976 9.848 13.454 9.95 12.94ZM20.752 12.284C21.299 11.971 22.058 12.426 22.034 13.044C22.071 13.699 21.231 14.16 20.687 13.776C20.121 13.456 20.165 12.556 20.752 12.284ZM12.122 14.591C12.76 14.418 13.492 14.714 13.805 15.292C14.148 15.874 14.008 16.682 13.475 17.11C12.79 17.736 11.529 17.484 11.165 16.63C10.746 15.847 11.255 14.797 12.121 14.59L12.122 14.591ZM19.049 14.588C19.67 14.413 20.4 14.648 20.734 15.205C21.176 15.842 20.965 16.793 20.308 17.203C19.618 17.68 18.552 17.43 18.172 16.684C17.712 15.913 18.175 14.823 19.049 14.588ZM8.009 15.314C8.561 15.109 9.173 15.708 8.949 16.247C8.813 16.737 8.11 16.919 7.747 16.557C7.322 16.217 7.479 15.462 8.009 15.314ZM22.978 16.096C22.9676 15.8759 23.0446 15.6606 23.1922 15.4969C23.3397 15.3332 23.546 15.2344 23.766 15.222C24.144 15.282 24.512 15.582 24.482 15.987C24.517 16.522 23.862 16.885 23.398 16.634C23.181 16.525 23.07 16.306 22.978 16.096ZM5.294 15.58C5.626 15.437 6.037 15.72 5.961 16.083C5.943 16.494 5.326 16.653 5.1 16.309C4.9 16.07 5.02 15.703 5.294 15.579V15.58ZM26.243 15.571C26.477 15.408 26.853 15.525 26.945 15.794C27.102 16.088 26.814 16.49 26.478 16.441C26.006 16.483 25.854 15.776 26.243 15.571ZM13.926 17.544C14.8 17.321 15.74 18.038 15.746 18.924C15.802 19.819 14.876 20.612 13.982 20.406C13.29 20.296 12.747 19.64 12.77 18.953C12.768 18.295 13.272 17.683 13.926 17.544ZM17.388 17.543C18.275 17.299 19.243 18.029 19.229 18.935C19.276 19.813 18.379 20.58 17.503 20.405C16.678 20.301 16.07 19.41 16.3 18.622C16.416 18.098 16.862 17.672 17.388 17.542V17.543ZM10.712 18.088C11.326 17.985 11.902 18.658 11.653 19.232C11.471 19.844 10.567 20.009 10.167 19.51C9.699 19.03 10.049 18.154 10.712 18.088ZM20.866 18.115C21.414 17.889 22.086 18.355 22.044 18.94C22.066 19.583 21.236 20.027 20.701 19.651C20.094 19.314 20.205 18.321 20.866 18.115ZM23.704 20.915C23.49 20.522 23.879 20.001 24.324 20.074C24.544 20.07 24.699 20.241 24.84 20.385C24.869 20.618 24.918 20.896 24.721 21.075C24.454 21.408 23.849 21.313 23.704 20.915ZM7.436 20.183C7.851 19.912 8.448 20.317 8.354 20.793C8.304 21.216 7.764 21.457 7.409 21.217C7.027 21 7.041 20.381 7.436 20.183ZM15.629 21.066C16.172 20.831 16.864 21.296 16.812 21.884C16.852 22.534 15.997 22.984 15.466 22.594C14.876 22.259 14.975 21.273 15.629 21.066ZM11.835 21.937C12.297 21.698 12.917 22.111 12.875 22.621C12.889 23.039 12.475 23.395 12.055 23.333C11.708 23.326 11.482 23.019 11.37 22.728C11.376 22.411 11.509 22.058 11.835 21.938V21.937ZM19.521 21.945C19.997 21.655 20.673 22.071 20.628 22.615C20.64 23.185 19.876 23.549 19.433 23.175C19.005 22.882 19.057 22.178 19.521 21.945ZM20.858 25.195C20.646 24.881 20.895 24.502 21.238 24.43C21.515 24.485 21.808 24.69 21.749 25.004C21.709 25.431 21.075 25.561 20.858 25.196V25.195ZM10.247 24.922C10.331 24.672 10.535 24.425 10.834 24.49C11.269 24.52 11.398 25.166 11.017 25.365C10.675 25.592 10.277 25.281 10.247 24.922ZM15.367 25.209C15.45 24.839 15.935 24.66 16.255 24.856C16.467 24.946 16.529 25.178 16.583 25.376C16.5545 25.4789 16.5278 25.5822 16.503 25.686C16.372 25.838 16.203 25.991 15.985 25.986C15.58 26.033 15.214 25.582 15.366 25.209H15.367Z" fill="black"/>
</g>
<path d="M15.725 6.06001C16.204 5.81301 16.789 6.38401 16.535 6.85501C16.386 7.23901 15.825 7.34101 15.539 7.04801C15.236 6.76801 15.335 6.21201 15.725 6.05901V6.06001ZM10.57 6.60601C10.861 6.48801 11.23 6.75001 11.2 7.06301C11.23 7.40101 10.81 7.65101 10.513 7.49001C10.12 7.34001 10.165 6.71201 10.57 6.60601ZM21.128 7.49901C20.673 7.44501 20.601 6.74101 21.038 6.59901C21.378 6.43701 21.69 6.74201 21.74 7.05901C21.668 7.32901 21.438 7.57701 21.128 7.49901ZM11.743 8.76401C12.23 8.46101 12.924 8.91201 12.849 9.46901C12.824 10.03 12.066 10.356 11.638 9.97601C11.224 9.67801 11.287 8.99401 11.743 8.76401ZM19.173 9.08601C19.39 8.53601 20.27 8.51801 20.517 9.05401C20.762 9.47101 20.461 9.98801 20.026 10.13C19.449 10.236 18.902 9.62201 19.173 9.08601ZM15.104 10.099C15.099 9.62501 15.537 9.27301 15.994 9.24001C16.298 9.30001 16.628 9.42701 16.758 9.72801C17.001 10.144 16.785 10.715 16.348 10.906C16.148 11.016 15.91 10.975 15.692 10.962C15.359 10.802 15.078 10.485 15.104 10.099ZM7.438 10.789C7.883 10.519 8.483 11.009 8.314 11.485C8.222 11.896 7.66 12.063 7.339 11.801C6.996 11.555 7.05 10.964 7.439 10.788L7.438 10.789ZM23.9 10.787C24.277 10.499 24.9 10.83 24.854 11.298C24.88 11.725 24.341 12.048 23.967 11.828C23.555 11.645 23.512 11.021 23.9 10.788V10.787ZM17.26 11.638C17.882 11.418 18.622 11.681 18.976 12.228C19.444 12.895 19.196 13.911 18.469 14.294C17.717 14.747 16.618 14.364 16.339 13.536C16.024 12.796 16.484 11.87 17.259 11.638H17.26ZM13.607 11.711C14.297 11.391 15.226 11.659 15.559 12.353C15.951 13.029 15.648 13.97 14.947 14.319C14.245 14.712 13.254 14.414 12.915 13.689C12.534 12.987 12.872 12.034 13.607 11.711ZM9.95 12.94C10.003 12.503 10.422 12.218 10.845 12.188C11.0656 12.2113 11.2718 12.3088 11.4298 12.4644C11.5878 12.6201 11.6884 12.8248 11.715 13.045C11.685 13.495 11.332 13.933 10.848 13.931C10.315 13.976 9.848 13.454 9.95 12.94ZM20.752 12.284C21.299 11.971 22.058 12.426 22.034 13.044C22.071 13.699 21.231 14.16 20.687 13.776C20.121 13.456 20.165 12.556 20.752 12.284ZM12.122 14.591C12.76 14.418 13.492 14.714 13.805 15.292C14.148 15.874 14.008 16.682 13.475 17.11C12.79 17.736 11.529 17.484 11.165 16.63C10.746 15.847 11.255 14.797 12.121 14.59L12.122 14.591ZM19.049 14.588C19.67 14.413 20.4 14.648 20.734 15.205C21.176 15.842 20.965 16.793 20.308 17.203C19.618 17.68 18.552 17.43 18.172 16.684C17.712 15.913 18.175 14.823 19.049 14.588ZM8.009 15.314C8.561 15.109 9.173 15.708 8.949 16.247C8.813 16.737 8.11 16.919 7.747 16.557C7.322 16.217 7.479 15.462 8.009 15.314ZM22.978 16.096C22.9676 15.8759 23.0446 15.6606 23.1922 15.4969C23.3397 15.3332 23.546 15.2344 23.766 15.222C24.144 15.282 24.512 15.582 24.482 15.987C24.517 16.522 23.862 16.885 23.398 16.634C23.181 16.525 23.07 16.306 22.978 16.096ZM5.294 15.58C5.626 15.437 6.037 15.72 5.961 16.083C5.943 16.494 5.326 16.653 5.1 16.309C4.9 16.07 5.02 15.703 5.294 15.579V15.58ZM26.243 15.571C26.477 15.408 26.853 15.525 26.945 15.794C27.102 16.088 26.814 16.49 26.478 16.441C26.006 16.483 25.854 15.776 26.243 15.571ZM13.926 17.544C14.8 17.321 15.74 18.038 15.746 18.924C15.802 19.819 14.876 20.612 13.982 20.406C13.29 20.296 12.747 19.64 12.77 18.953C12.768 18.295 13.272 17.683 13.926 17.544ZM17.388 17.543C18.275 17.299 19.243 18.029 19.229 18.935C19.276 19.813 18.379 20.58 17.503 20.405C16.678 20.301 16.07 19.41 16.3 18.622C16.416 18.098 16.862 17.672 17.388 17.542V17.543ZM10.712 18.088C11.326 17.985 11.902 18.658 11.653 19.232C11.471 19.844 10.567 20.009 10.167 19.51C9.699 19.03 10.049 18.154 10.712 18.088ZM20.866 18.115C21.414 17.889 22.086 18.355 22.044 18.94C22.066 19.583 21.236 20.027 20.701 19.651C20.094 19.314 20.205 18.321 20.866 18.115ZM23.704 20.915C23.49 20.522 23.879 20.001 24.324 20.074C24.544 20.07 24.699 20.241 24.84 20.385C24.869 20.618 24.918 20.896 24.721 21.075C24.454 21.408 23.849 21.313 23.704 20.915ZM7.436 20.183C7.851 19.912 8.448 20.317 8.354 20.793C8.304 21.216 7.764 21.457 7.409 21.217C7.027 21 7.041 20.381 7.436 20.183ZM15.629 21.066C16.172 20.831 16.864 21.296 16.812 21.884C16.852 22.534 15.997 22.984 15.466 22.594C14.876 22.259 14.975 21.273 15.629 21.066ZM11.835 21.937C12.297 21.698 12.917 22.111 12.875 22.621C12.889 23.039 12.475 23.395 12.055 23.333C11.708 23.326 11.482 23.019 11.37 22.728C11.376 22.411 11.509 22.058 11.835 21.938V21.937ZM19.521 21.945C19.997 21.655 20.673 22.071 20.628 22.615C20.64 23.185 19.876 23.549 19.433 23.175C19.005 22.882 19.057 22.178 19.521 21.945ZM20.858 25.195C20.646 24.881 20.895 24.502 21.238 24.43C21.515 24.485 21.808 24.69 21.749 25.004C21.709 25.431 21.075 25.561 20.858 25.196V25.195ZM10.247 24.922C10.331 24.672 10.535 24.425 10.834 24.49C11.269 24.52 11.398 25.166 11.017 25.365C10.675 25.592 10.277 25.281 10.247 24.922ZM15.367 25.209C15.45 24.839 15.935 24.66 16.255 24.856C16.467 24.946 16.529 25.178 16.583 25.376C16.5545 25.4789 16.5278 25.5822 16.503 25.686C16.372 25.838 16.203 25.991 15.985 25.986C15.58 26.033 15.214 25.582 15.366 25.209H15.367Z" fill="white"/>
<defs>
<filter id="filter0_d" x="4.00044" y="5.50043" width="23.9886" height="21.989" filterUnits="userSpaceOnUse" color-interpolation-filters="sRGB">
<feFlood flood-opacity="0" result="BackgroundImageFix"/>
<feColorMatrix in="SourceAlpha" type="matrix" values="0 0 0 0 0 0 0 0 0 0 0 0 0 0 0 0 0 0 127 0" result="hardAlpha"/>
<feOffset dy="0.5"/>
<feGaussianBlur stdDeviation="0.5"/>
<feColorMatrix type="matrix" values="0 0 0 0 0 0 0 0 0 0 0 0 0 0 0 0 0 0 0.204257 0"/>
<feBlend mode="normal" in2="BackgroundImageFix" result="effect1_dropShadow"/>
<feBlend mode="normal" in="SourceGraphic" in2="effect1_dropShadow" result="shape"/>
</filter>
</defs>
</svg>
