<svg width="32" height="32" viewBox="0 0 32 32" fill="none" xmlns="http://www.w3.org/2000/svg">
<path d="M0 16C0 7.16344 7.16344 0 16 0C24.8366 0 32 7.16344 32 16C32 24.8366 24.8366 32 16 32C7.16344 32 0 24.8366 0 16Z" fill="#212121"/>
<path fill-rule="evenodd" clip-rule="evenodd" d="M16 30.5C22.77 30.5 28.4502 25.8074 30 19.48H25.1761C23.7774 23.2083 20.1966 25.86 16 25.86C11.8034 25.86 8.2226 23.2083 6.82392 19.48H2C3.54984 25.8074 9.23001 30.5 16 30.5ZM16 1.5C22.77 1.5 28.4502 6.19261 30 12.52H25.1761C23.7774 8.79173 20.1966 6.14 16 6.14C11.8034 6.14 8.2226 8.79173 6.82392 12.52H2C3.54984 6.19261 9.23001 1.5 16 1.5ZM13.4624 12.52C12.9528 12.52 12.5397 12.9355 12.5397 13.448V18.552C12.5397 19.0645 12.9528 19.48 13.4624 19.48H18.5376C19.0472 19.48 19.4603 19.0645 19.4603 18.552V13.448C19.4603 12.9355 19.0472 12.52 18.5376 12.52H13.4624Z" fill="#C6FF00"/>
</svg>
